<svg xmlns="http://www.w3.org/2000/svg" xmlns:xlink="http://www.w3.org/1999/xlink" width="1600" zoomAndPan="magnify" viewBox="0 0 1200 607.92" height="800" preserveAspectRatio="xMidYMid meet" version="1.0"><defs><g/><clipPath id="bfbfe87079"><rect x="0" width="315" y="0" height="376"/></clipPath><clipPath id="65d2b3fa61"><rect x="0" width="242" y="0" height="376"/></clipPath><clipPath id="05391532b5"><path d="M 303.605469 319.726562 L 345.832031 319.726562 L 345.832031 394.992188 L 303.605469 394.992188 Z M 303.605469 319.726562 " clip-rule="nonzero"/></clipPath><clipPath id="c8b4eef713"><path d="M 0.605469 0.726562 L 42.832031 0.726562 L 42.832031 75.992188 L 0.605469 75.992188 Z M 0.605469 0.726562 " clip-rule="nonzero"/></clipPath><clipPath id="8481913e02"><rect x="0" width="43" y="0" height="76"/></clipPath><clipPath id="2be0671b44"><path d="M 733.554688 220.09375 L 799.910156 220.09375 L 799.910156 295.359375 L 733.554688 295.359375 Z M 733.554688 220.09375 " clip-rule="nonzero"/></clipPath><clipPath id="dc29be8e02"><path d="M 0.554688 0.09375 L 66.910156 0.09375 L 66.910156 75.359375 L 0.554688 75.359375 Z M 0.554688 0.09375 " clip-rule="nonzero"/></clipPath><clipPath id="58304d5b0a"><rect x="0" width="67" y="0" height="76"/></clipPath><clipPath id="f33fed6b2b"><path d="M 327.890625 319.726562 L 376 319.726562 L 376 388.695312 L 327.890625 388.695312 Z M 327.890625 319.726562 " clip-rule="nonzero"/></clipPath><clipPath id="a5f694d6ec"><path d="M 345.75 319.726562 L 376 319.726562 L 358.140625 388.628906 L 327.890625 388.628906 Z M 345.75 319.726562 " clip-rule="nonzero"/></clipPath><clipPath id="c11ac040dc"><path d="M 0.890625 0.726562 L 49 0.726562 L 49 69.695312 L 0.890625 69.695312 Z M 0.890625 0.726562 " clip-rule="nonzero"/></clipPath><clipPath id="16e30aff76"><path d="M 18.75 0.726562 L 49 0.726562 L 31.140625 69.628906 L 0.890625 69.628906 Z M 18.75 0.726562 " clip-rule="nonzero"/></clipPath><clipPath id="41fcab45e4"><rect x="0" width="49" y="0" height="70"/></clipPath><clipPath id="2ed1240a28"><path d="M 776.804688 226.457031 L 829.6875 226.457031 L 829.6875 295.453125 L 776.804688 295.453125 Z M 776.804688 226.457031 " clip-rule="nonzero"/></clipPath><clipPath id="2096af9ff2"><path d="M 794.667969 226.457031 L 829.6875 226.457031 L 811.828125 295.359375 L 776.804688 295.359375 Z M 794.667969 226.457031 " clip-rule="nonzero"/></clipPath><clipPath id="6590c14e3f"><path d="M 0.804688 0.457031 L 53.6875 0.457031 L 53.6875 69.402344 L 0.804688 69.402344 Z M 0.804688 0.457031 " clip-rule="nonzero"/></clipPath><clipPath id="16b556d6cd"><path d="M 18.667969 0.457031 L 53.6875 0.457031 L 35.828125 69.359375 L 0.804688 69.359375 Z M 18.667969 0.457031 " clip-rule="nonzero"/></clipPath><clipPath id="e5b73e1c66"><rect x="0" width="54" y="0" height="70"/></clipPath><clipPath id="34e0be366e"><rect x="0" width="293" y="0" height="408"/></clipPath><clipPath id="651ed9fdd0"><rect x="0" width="532" y="0" height="38"/></clipPath><clipPath id="86d2b9dbcd"><rect x="0" width="166" y="0" height="376"/></clipPath><clipPath id="242264120a"><rect x="0" width="188" y="0" height="391"/></clipPath><clipPath id="cb7b1c3e00"><path d="M 961 337 L 1041 337 L 1041 424 L 961 424 Z M 961 337 " clip-rule="nonzero"/></clipPath><clipPath id="ef62033be0"><path d="M 975.003906 337.246094 L 1040.214844 349.527344 L 1026.285156 423.492188 L 961.074219 411.210938 Z M 975.003906 337.246094 " clip-rule="nonzero"/></clipPath><clipPath id="729335f97b"><path d="M 0 0.15625 L 79.34375 0.15625 L 79.34375 86.542969 L 0 86.542969 Z M 0 0.15625 " clip-rule="nonzero"/></clipPath><clipPath id="e8835e3fbf"><path d="M 14.003906 0.246094 L 79.214844 12.527344 L 65.285156 86.492188 L 0.0742188 74.210938 Z M 14.003906 0.246094 " clip-rule="nonzero"/></clipPath><clipPath id="b5acc6343f"><rect x="0" width="80" y="0" height="87"/></clipPath><clipPath id="6aabc4a2a7"><path d="M 1013.628906 345.917969 L 1061.738281 345.917969 L 1061.738281 414.886719 L 1013.628906 414.886719 Z M 1013.628906 345.917969 " clip-rule="nonzero"/></clipPath><clipPath id="382e348343"><path d="M 1031.492188 345.917969 L 1061.738281 345.917969 L 1043.878906 414.820312 L 1013.628906 414.820312 Z M 1031.492188 345.917969 " clip-rule="nonzero"/></clipPath><clipPath id="1cdbfcaeef"><path d="M 0.628906 0.917969 L 48.738281 0.917969 L 48.738281 69.886719 L 0.628906 69.886719 Z M 0.628906 0.917969 " clip-rule="nonzero"/></clipPath><clipPath id="0b7621b6f8"><path d="M 18.492188 0.917969 L 48.738281 0.917969 L 30.878906 69.820312 L 0.628906 69.820312 Z M 18.492188 0.917969 " clip-rule="nonzero"/></clipPath><clipPath id="d7224ced69"><rect x="0" width="49" y="0" height="70"/></clipPath></defs><g transform="matrix(1, 0, 0, 1, 66, 104)"><g clip-path="url(#bfbfe87079)"><g fill="#ffffff" fill-opacity="1"><g transform="translate(0.992762, 276.823699)"><g><path d="M 19.640625 0 L 19.640625 -191.234375 L 58.921875 -191.234375 L 58.921875 -86.828125 L 69 -86.828125 C 77.269531 -86.828125 83.515625 -88.160156 87.734375 -90.828125 C 91.953125 -93.503906 95.351562 -98.632812 97.9375 -106.21875 L 107.5 -135.671875 L 149.890625 -135.671875 L 134.125 -92.515625 C 129.8125 -80.453125 124.039062 -71.234375 116.8125 -64.859375 L 155.828125 0 L 110.09375 0 L 80.109375 -51.6875 L 58.921875 -51.6875 L 58.921875 0 Z M 19.640625 0 "/></g></g></g><g fill="#ffffff" fill-opacity="1"><g transform="translate(137.934574, 276.823699)"><g><path d="M 64.859375 2.578125 C 48.835938 2.578125 36.175781 -1.164062 26.875 -8.65625 C 17.570312 -16.15625 12.921875 -26.445312 12.921875 -39.53125 C 12.921875 -52.113281 17.097656 -62.148438 25.453125 -69.640625 C 33.804688 -77.140625 45.046875 -80.890625 59.171875 -80.890625 L 108.28125 -80.890625 L 108.28125 -87.09375 C 108.28125 -93.8125 105.867188 -99.191406 101.046875 -103.234375 C 96.222656 -107.285156 89.929688 -109.3125 82.171875 -109.3125 C 75.796875 -109.3125 70.367188 -107.847656 65.890625 -104.921875 C 61.410156 -101.992188 58.570312 -98.117188 57.375 -93.296875 L 19.640625 -93.296875 C 22.054688 -108.109375 28.734375 -119.476562 39.671875 -127.40625 C 50.609375 -135.332031 64.691406 -139.296875 81.921875 -139.296875 C 102.242188 -139.296875 118.132812 -134.164062 129.59375 -123.90625 C 141.050781 -113.65625 146.78125 -99.570312 146.78125 -81.65625 L 146.78125 0 L 117.578125 0 L 113.1875 -15.765625 C 101.300781 -3.535156 85.191406 2.578125 64.859375 2.578125 Z M 51.6875 -41.09375 C 51.6875 -36.4375 53.707031 -32.6875 57.75 -29.84375 C 61.800781 -27 67.1875 -25.578125 73.90625 -25.578125 C 83.726562 -25.578125 91.867188 -28.421875 98.328125 -34.109375 C 104.785156 -39.796875 108.1875 -47.207031 108.53125 -56.34375 L 71.328125 -56.34375 C 65.460938 -56.34375 60.722656 -54.960938 57.109375 -52.203125 C 53.492188 -49.441406 51.6875 -45.738281 51.6875 -41.09375 Z M 51.6875 -41.09375 "/></g></g></g><g fill="#ffffff" fill-opacity="1"><g transform="translate(276.180049, 276.823699)"><g/></g></g></g></g><g transform="matrix(1, 0, 0, 1, 557, 95)"><g clip-path="url(#65d2b3fa61)"><g fill="#ffffff" fill-opacity="1"><g transform="translate(3.567921, 276.587082)"><g><path d="M 52.453125 0 L 2.328125 -135.671875 L 43.9375 -135.671875 L 59.703125 -90.703125 L 73.140625 -52.71875 L 87.09375 -90.703125 L 103.890625 -135.671875 L 135.671875 -135.671875 L 152.46875 -90.703125 L 166.421875 -52.453125 L 179.859375 -90.703125 L 195.890625 -135.671875 L 237.234375 -135.671875 L 187.09375 0 L 150.65625 0 L 119.90625 -82.6875 L 88.890625 0 Z M 52.453125 0 "/></g></g></g></g></g><g clip-path="url(#05391532b5)"><g transform="matrix(1, 0, 0, 1, 303, 319)"><g clip-path="url(#8481913e02)"><g clip-path="url(#c8b4eef713)"><path fill="#1e1c1c" d="M 0.605469 0.726562 L 42.832031 0.726562 L 42.832031 75.941406 L 0.605469 75.941406 Z M 0.605469 0.726562 " fill-opacity="1" fill-rule="nonzero"/></g></g></g></g><g clip-path="url(#2be0671b44)"><g transform="matrix(1, 0, 0, 1, 733, 220)"><g clip-path="url(#58304d5b0a)"><g clip-path="url(#dc29be8e02)"><path fill="#1e1c1c" d="M 0.554688 0.09375 L 66.910156 0.09375 L 66.910156 75.265625 L 0.554688 75.265625 Z M 0.554688 0.09375 " fill-opacity="1" fill-rule="nonzero"/></g></g></g></g><g clip-path="url(#f33fed6b2b)"><g clip-path="url(#a5f694d6ec)"><g transform="matrix(1, 0, 0, 1, 327, 319)"><g clip-path="url(#41fcab45e4)"><g clip-path="url(#c11ac040dc)"><g clip-path="url(#16e30aff76)"><path fill="#adfa1d" d="M 0.890625 0.726562 L 49 0.726562 L 49 69.695312 L 0.890625 69.695312 Z M 0.890625 0.726562 " fill-opacity="1" fill-rule="nonzero"/></g></g></g></g></g></g><g clip-path="url(#2ed1240a28)"><g clip-path="url(#2096af9ff2)"><g transform="matrix(1, 0, 0, 1, 776, 226)"><g clip-path="url(#e5b73e1c66)"><g clip-path="url(#6590c14e3f)"><g clip-path="url(#16b556d6cd)"><path fill="#adfa1d" d="M 0.804688 0.457031 L 53.6875 0.457031 L 53.6875 69.453125 L 0.804688 69.453125 Z M 0.804688 0.457031 " fill-opacity="1" fill-rule="nonzero"/></g></g></g></g></g></g><g transform="matrix(1, 0, 0, 1, 311, 91)"><g clip-path="url(#34e0be366e)"><g fill="#ffffff" fill-opacity="1"><g transform="translate(108.809867, 316.429846)"><g><path d="M 18.09375 -7.640625 L -34.703125 -132.625 L -7.796875 -143.984375 L 1.9375 -131.53125 C 4.539062 -139.550781 8.847656 -146.515625 14.859375 -152.421875 C 20.867188 -158.335938 28.003906 -163.039062 36.265625 -166.53125 C 52.597656 -173.425781 67.550781 -173.753906 81.125 -167.515625 C 94.707031 -161.285156 105.148438 -149.519531 112.453125 -132.21875 L 142.828125 -60.328125 L 106.640625 -45.046875 L 77.875 -113.125 C 73.988281 -122.332031 68.773438 -128.59375 62.234375 -131.90625 C 55.703125 -135.21875 48.546875 -135.234375 40.765625 -131.953125 C 32.503906 -128.460938 27.039062 -122.789062 24.375 -114.9375 C 21.71875 -107.082031 22.46875 -98.226562 26.625 -88.375 L 54.28125 -22.921875 Z M 18.09375 -7.640625 "/></g></g></g></g></g><g transform="matrix(1, 0, 0, 1, 344, 420)"><g clip-path="url(#651ed9fdd0)"><g fill="#adfa1d" fill-opacity="1"><g transform="translate(1.211989, 30.133381)"><g><path d="M 1.4375 -19.21875 L 1.4375 -21.53125 L 17.578125 -21.53125 L 17.578125 -19.21875 L 10.8125 -19.21875 L 10.8125 0 L 8.203125 0 L 8.203125 -19.21875 Z M 1.4375 -19.21875 "/></g></g></g><g fill="#adfa1d" fill-opacity="1"><g transform="translate(39.488737, 30.133381)"><g><path d="M 2.609375 0 L 2.609375 -21.53125 L 15.609375 -21.53125 L 15.609375 -19.21875 L 5.21875 -19.21875 L 5.21875 -11.9375 L 14.9375 -11.9375 L 14.9375 -9.625 L 5.21875 -9.625 L 5.21875 -2.3125 L 15.765625 -2.3125 L 15.765625 0 Z M 2.609375 0 "/></g></g></g><g fill="#adfa1d" fill-opacity="1"><g transform="translate(76.462002, 30.133381)"><g><path d="M 19.9375 -14.8125 L 17.328125 -14.8125 C 17.117188 -15.800781 16.710938 -16.632812 16.109375 -17.3125 C 15.515625 -18 14.796875 -18.515625 13.953125 -18.859375 C 13.117188 -19.210938 12.222656 -19.390625 11.265625 -19.390625 C 9.960938 -19.390625 8.785156 -19.054688 7.734375 -18.390625 C 6.679688 -17.734375 5.84375 -16.765625 5.21875 -15.484375 C 4.601562 -14.203125 4.296875 -12.628906 4.296875 -10.765625 C 4.296875 -8.898438 4.601562 -7.328125 5.21875 -6.046875 C 5.84375 -4.765625 6.679688 -3.789062 7.734375 -3.125 C 8.785156 -2.46875 9.960938 -2.140625 11.265625 -2.140625 C 12.222656 -2.140625 13.117188 -2.316406 13.953125 -2.671875 C 14.796875 -3.023438 15.515625 -3.539062 16.109375 -4.21875 C 16.710938 -4.894531 17.117188 -5.734375 17.328125 -6.734375 L 19.9375 -6.734375 C 19.664062 -5.253906 19.117188 -3.988281 18.296875 -2.9375 C 17.484375 -1.894531 16.46875 -1.09375 15.25 -0.53125 C 14.039062 0.0195312 12.710938 0.296875 11.265625 0.296875 C 9.429688 0.296875 7.800781 -0.148438 6.375 -1.046875 C 4.945312 -1.941406 3.820312 -3.21875 3 -4.875 C 2.175781 -6.53125 1.765625 -8.492188 1.765625 -10.765625 C 1.765625 -13.035156 2.175781 -15 3 -16.65625 C 3.820312 -18.3125 4.945312 -19.585938 6.375 -20.484375 C 7.800781 -21.378906 9.429688 -21.828125 11.265625 -21.828125 C 12.710938 -21.828125 14.039062 -21.546875 15.25 -20.984375 C 16.46875 -20.429688 17.484375 -19.628906 18.296875 -18.578125 C 19.117188 -17.535156 19.664062 -16.28125 19.9375 -14.8125 Z M 19.9375 -14.8125 "/></g></g></g><g fill="#adfa1d" fill-opacity="1"><g transform="translate(117.261627, 30.133381)"><g><path d="M 2.609375 0 L 2.609375 -21.53125 L 5.21875 -21.53125 L 5.21875 -11.9375 L 16.703125 -11.9375 L 16.703125 -21.53125 L 19.3125 -21.53125 L 19.3125 0 L 16.703125 0 L 16.703125 -9.625 L 5.21875 -9.625 L 5.21875 0 Z M 2.609375 0 "/></g></g></g><g fill="#adfa1d" fill-opacity="1"><g transform="translate(158.439699, 30.133381)"><g/></g></g><g fill="#adfa1d" fill-opacity="1"><g transform="translate(186.036302, 30.133381)"><g><path d="M 14.390625 -16.15625 C 14.253906 -17.21875 13.738281 -18.039062 12.84375 -18.625 C 11.945312 -19.21875 10.847656 -19.515625 9.546875 -19.515625 C 8.117188 -19.515625 6.96875 -19.175781 6.09375 -18.5 C 5.226562 -17.820312 4.796875 -16.96875 4.796875 -15.9375 C 4.796875 -15.164062 5.03125 -14.539062 5.5 -14.0625 C 5.976562 -13.59375 6.539062 -13.226562 7.1875 -12.96875 C 7.832031 -12.707031 8.421875 -12.503906 8.953125 -12.359375 L 11.140625 -11.78125 C 11.703125 -11.632812 12.328125 -11.429688 13.015625 -11.171875 C 13.710938 -10.910156 14.378906 -10.554688 15.015625 -10.109375 C 15.648438 -9.660156 16.171875 -9.085938 16.578125 -8.390625 C 16.992188 -7.703125 17.203125 -6.851562 17.203125 -5.84375 C 17.203125 -4.675781 16.898438 -3.625 16.296875 -2.6875 C 15.691406 -1.75 14.804688 -1.003906 13.640625 -0.453125 C 12.484375 0.0976562 11.078125 0.375 9.421875 0.375 C 7.109375 0.375 5.269531 -0.171875 3.90625 -1.265625 C 2.550781 -2.359375 1.8125 -3.785156 1.6875 -5.546875 L 4.375 -5.546875 C 4.445312 -4.734375 4.722656 -4.0625 5.203125 -3.53125 C 5.679688 -3.007812 6.289062 -2.617188 7.03125 -2.359375 C 7.769531 -2.109375 8.566406 -1.984375 9.421875 -1.984375 C 10.421875 -1.984375 11.316406 -2.144531 12.109375 -2.46875 C 12.898438 -2.789062 13.523438 -3.242188 13.984375 -3.828125 C 14.441406 -4.410156 14.671875 -5.097656 14.671875 -5.890625 C 14.671875 -6.597656 14.472656 -7.175781 14.078125 -7.625 C 13.679688 -8.082031 13.15625 -8.445312 12.5 -8.71875 C 11.851562 -9 11.148438 -9.25 10.390625 -9.46875 L 7.734375 -10.21875 C 6.054688 -10.707031 4.722656 -11.398438 3.734375 -12.296875 C 2.753906 -13.191406 2.265625 -14.363281 2.265625 -15.8125 C 2.265625 -17.019531 2.59375 -18.070312 3.25 -18.96875 C 3.90625 -19.875 4.789062 -20.578125 5.90625 -21.078125 C 7.019531 -21.578125 8.257812 -21.828125 9.625 -21.828125 C 11.019531 -21.828125 12.253906 -21.578125 13.328125 -21.078125 C 14.410156 -20.585938 15.269531 -19.914062 15.90625 -19.0625 C 16.539062 -18.207031 16.875 -17.238281 16.90625 -16.15625 Z M 14.390625 -16.15625 "/></g></g></g><g fill="#adfa1d" fill-opacity="1"><g transform="translate(224.186914, 30.133381)"><g><path d="M 20.78125 -10.765625 C 20.78125 -8.492188 20.367188 -6.53125 19.546875 -4.875 C 18.722656 -3.21875 17.597656 -1.941406 16.171875 -1.046875 C 14.742188 -0.148438 13.109375 0.296875 11.265625 0.296875 C 9.429688 0.296875 7.800781 -0.148438 6.375 -1.046875 C 4.945312 -1.941406 3.820312 -3.21875 3 -4.875 C 2.175781 -6.53125 1.765625 -8.492188 1.765625 -10.765625 C 1.765625 -13.035156 2.175781 -15 3 -16.65625 C 3.820312 -18.3125 4.945312 -19.585938 6.375 -20.484375 C 7.800781 -21.378906 9.429688 -21.828125 11.265625 -21.828125 C 13.109375 -21.828125 14.742188 -21.378906 16.171875 -20.484375 C 17.597656 -19.585938 18.722656 -18.3125 19.546875 -16.65625 C 20.367188 -15 20.78125 -13.035156 20.78125 -10.765625 Z M 18.25 -10.765625 C 18.25 -12.628906 17.9375 -14.203125 17.3125 -15.484375 C 16.695312 -16.765625 15.863281 -17.734375 14.8125 -18.390625 C 13.757812 -19.054688 12.578125 -19.390625 11.265625 -19.390625 C 9.960938 -19.390625 8.785156 -19.054688 7.734375 -18.390625 C 6.679688 -17.734375 5.84375 -16.765625 5.21875 -15.484375 C 4.601562 -14.203125 4.296875 -12.628906 4.296875 -10.765625 C 4.296875 -8.898438 4.601562 -7.328125 5.21875 -6.046875 C 5.84375 -4.765625 6.679688 -3.789062 7.734375 -3.125 C 8.785156 -2.46875 9.960938 -2.140625 11.265625 -2.140625 C 12.578125 -2.140625 13.757812 -2.46875 14.8125 -3.125 C 15.863281 -3.789062 16.695312 -4.765625 17.3125 -6.046875 C 17.9375 -7.328125 18.25 -8.898438 18.25 -10.765625 Z M 18.25 -10.765625 "/></g></g></g><g fill="#adfa1d" fill-opacity="1"><g transform="translate(265.995704, 30.133381)"><g><path d="M 2.609375 0 L 2.609375 -21.53125 L 5.21875 -21.53125 L 5.21875 -2.3125 L 15.21875 -2.3125 L 15.21875 0 Z M 2.609375 0 "/></g></g></g><g fill="#adfa1d" fill-opacity="1"><g transform="translate(301.917795, 30.133381)"><g><path d="M 16.734375 -21.53125 L 19.34375 -21.53125 L 19.34375 -7.28125 C 19.34375 -5.664062 18.960938 -4.285156 18.203125 -3.140625 C 17.441406 -2.003906 16.425781 -1.132812 15.15625 -0.53125 C 13.882812 0.0703125 12.492188 0.375 10.984375 0.375 C 9.460938 0.375 8.066406 0.0703125 6.796875 -0.53125 C 5.535156 -1.132812 4.519531 -2.003906 3.75 -3.140625 C 2.988281 -4.285156 2.609375 -5.664062 2.609375 -7.28125 L 2.609375 -21.53125 L 5.21875 -21.53125 L 5.21875 -7.28125 C 5.21875 -6.15625 5.484375 -5.203125 6.015625 -4.421875 C 6.546875 -3.648438 7.25 -3.0625 8.125 -2.65625 C 9 -2.257812 9.953125 -2.0625 10.984375 -2.0625 C 12.003906 -2.0625 12.953125 -2.257812 13.828125 -2.65625 C 14.703125 -3.0625 15.40625 -3.648438 15.9375 -4.421875 C 16.46875 -5.203125 16.734375 -6.15625 16.734375 -7.28125 Z M 16.734375 -21.53125 "/></g></g></g><g fill="#adfa1d" fill-opacity="1"><g transform="translate(343.137912, 30.133381)"><g><path d="M 1.4375 -19.21875 L 1.4375 -21.53125 L 17.578125 -21.53125 L 17.578125 -19.21875 L 10.8125 -19.21875 L 10.8125 0 L 8.203125 0 L 8.203125 -19.21875 Z M 1.4375 -19.21875 "/></g></g></g><g fill="#adfa1d" fill-opacity="1"><g transform="translate(381.41466, 30.133381)"><g><path d="M 5.21875 -21.53125 L 5.21875 0 L 2.609375 0 L 2.609375 -21.53125 Z M 5.21875 -21.53125 "/></g></g></g><g fill="#adfa1d" fill-opacity="1"><g transform="translate(408.506718, 30.133381)"><g><path d="M 20.78125 -10.765625 C 20.78125 -8.492188 20.367188 -6.53125 19.546875 -4.875 C 18.722656 -3.21875 17.597656 -1.941406 16.171875 -1.046875 C 14.742188 -0.148438 13.109375 0.296875 11.265625 0.296875 C 9.429688 0.296875 7.800781 -0.148438 6.375 -1.046875 C 4.945312 -1.941406 3.820312 -3.21875 3 -4.875 C 2.175781 -6.53125 1.765625 -8.492188 1.765625 -10.765625 C 1.765625 -13.035156 2.175781 -15 3 -16.65625 C 3.820312 -18.3125 4.945312 -19.585938 6.375 -20.484375 C 7.800781 -21.378906 9.429688 -21.828125 11.265625 -21.828125 C 13.109375 -21.828125 14.742188 -21.378906 16.171875 -20.484375 C 17.597656 -19.585938 18.722656 -18.3125 19.546875 -16.65625 C 20.367188 -15 20.78125 -13.035156 20.78125 -10.765625 Z M 18.25 -10.765625 C 18.25 -12.628906 17.9375 -14.203125 17.3125 -15.484375 C 16.695312 -16.765625 15.863281 -17.734375 14.8125 -18.390625 C 13.757812 -19.054688 12.578125 -19.390625 11.265625 -19.390625 C 9.960938 -19.390625 8.785156 -19.054688 7.734375 -18.390625 C 6.679688 -17.734375 5.84375 -16.765625 5.21875 -15.484375 C 4.601562 -14.203125 4.296875 -12.628906 4.296875 -10.765625 C 4.296875 -8.898438 4.601562 -7.328125 5.21875 -6.046875 C 5.84375 -4.765625 6.679688 -3.789062 7.734375 -3.125 C 8.785156 -2.46875 9.960938 -2.140625 11.265625 -2.140625 C 12.578125 -2.140625 13.757812 -2.46875 14.8125 -3.125 C 15.863281 -3.789062 16.695312 -4.765625 17.3125 -6.046875 C 17.9375 -7.328125 18.25 -8.898438 18.25 -10.765625 Z M 18.25 -10.765625 "/></g></g></g><g fill="#adfa1d" fill-opacity="1"><g transform="translate(450.315509, 30.133381)"><g><path d="M 19.6875 -21.53125 L 19.6875 0 L 17.15625 0 L 5.421875 -16.90625 L 5.21875 -16.90625 L 5.21875 0 L 2.609375 0 L 2.609375 -21.53125 L 5.125 -21.53125 L 16.90625 -4.578125 L 17.125 -4.578125 L 17.125 -21.53125 Z M 19.6875 -21.53125 "/></g></g></g><g fill="#adfa1d" fill-opacity="1"><g transform="translate(491.87199, 30.133381)"><g><path d="M 14.390625 -16.15625 C 14.253906 -17.21875 13.738281 -18.039062 12.84375 -18.625 C 11.945312 -19.21875 10.847656 -19.515625 9.546875 -19.515625 C 8.117188 -19.515625 6.96875 -19.175781 6.09375 -18.5 C 5.226562 -17.820312 4.796875 -16.96875 4.796875 -15.9375 C 4.796875 -15.164062 5.03125 -14.539062 5.5 -14.0625 C 5.976562 -13.59375 6.539062 -13.226562 7.1875 -12.96875 C 7.832031 -12.707031 8.421875 -12.503906 8.953125 -12.359375 L 11.140625 -11.78125 C 11.703125 -11.632812 12.328125 -11.429688 13.015625 -11.171875 C 13.710938 -10.910156 14.378906 -10.554688 15.015625 -10.109375 C 15.648438 -9.660156 16.171875 -9.085938 16.578125 -8.390625 C 16.992188 -7.703125 17.203125 -6.851562 17.203125 -5.84375 C 17.203125 -4.675781 16.898438 -3.625 16.296875 -2.6875 C 15.691406 -1.75 14.804688 -1.003906 13.640625 -0.453125 C 12.484375 0.0976562 11.078125 0.375 9.421875 0.375 C 7.109375 0.375 5.269531 -0.171875 3.90625 -1.265625 C 2.550781 -2.359375 1.8125 -3.785156 1.6875 -5.546875 L 4.375 -5.546875 C 4.445312 -4.734375 4.722656 -4.0625 5.203125 -3.53125 C 5.679688 -3.007812 6.289062 -2.617188 7.03125 -2.359375 C 7.769531 -2.109375 8.566406 -1.984375 9.421875 -1.984375 C 10.421875 -1.984375 11.316406 -2.144531 12.109375 -2.46875 C 12.898438 -2.789062 13.523438 -3.242188 13.984375 -3.828125 C 14.441406 -4.410156 14.671875 -5.097656 14.671875 -5.890625 C 14.671875 -6.597656 14.472656 -7.175781 14.078125 -7.625 C 13.679688 -8.082031 13.15625 -8.445312 12.5 -8.71875 C 11.851562 -9 11.148438 -9.25 10.390625 -9.46875 L 7.734375 -10.21875 C 6.054688 -10.707031 4.722656 -11.398438 3.734375 -12.296875 C 2.753906 -13.191406 2.265625 -14.363281 2.265625 -15.8125 C 2.265625 -17.019531 2.59375 -18.070312 3.25 -18.96875 C 3.90625 -19.875 4.789062 -20.578125 5.90625 -21.078125 C 7.019531 -21.578125 8.257812 -21.828125 9.625 -21.828125 C 11.019531 -21.828125 12.253906 -21.578125 13.328125 -21.078125 C 14.410156 -20.585938 15.269531 -19.914062 15.90625 -19.0625 C 16.539062 -18.207031 16.875 -17.238281 16.90625 -16.15625 Z M 14.390625 -16.15625 "/></g></g></g></g></g><g transform="matrix(1, 0, 0, 1, 824, 104)"><g clip-path="url(#86d2b9dbcd)"><g fill="#ffffff" fill-opacity="1"><g transform="translate(1.051009, 276.808233)"><g><path d="M 83.734375 3.625 C 69.253906 3.625 56.457031 0.609375 45.34375 -5.421875 C 34.238281 -11.453125 25.582031 -19.851562 19.375 -30.625 C 13.175781 -41.394531 10.078125 -53.84375 10.078125 -67.96875 C 10.078125 -82.09375 13.21875 -94.492188 19.5 -105.171875 C 25.789062 -115.859375 34.492188 -124.21875 45.609375 -130.25 C 56.722656 -136.28125 69.601562 -139.296875 84.25 -139.296875 C 99.75 -139.296875 113.140625 -135.847656 124.421875 -128.953125 C 135.710938 -122.054688 144.328125 -112.40625 150.265625 -100 C 156.210938 -87.601562 158.753906 -73.132812 157.890625 -56.59375 L 49.09375 -56.59375 C 50.988281 -47.289062 55.125 -40.179688 61.5 -35.265625 C 67.875 -30.359375 75.539062 -27.90625 84.5 -27.90625 C 91.050781 -27.90625 97.039062 -29.15625 102.46875 -31.65625 C 107.894531 -34.15625 112.242188 -37.644531 115.515625 -42.125 L 155.3125 -42.125 C 149.457031 -27.820312 140.238281 -16.617188 127.65625 -8.515625 C 115.082031 -0.421875 100.441406 3.625 83.734375 3.625 Z M 49.359375 -81.40625 L 119.90625 -81.40625 C 117.664062 -89.675781 113.488281 -96.175781 107.375 -100.90625 C 101.257812 -105.644531 93.632812 -108.015625 84.5 -108.015625 C 75.882812 -108.015625 68.429688 -105.644531 62.140625 -100.90625 C 55.859375 -96.175781 51.597656 -89.675781 49.359375 -81.40625 Z M 49.359375 -81.40625 "/></g></g></g></g></g><g transform="matrix(1, 0, 0, 1, 941, 95)"><g clip-path="url(#242264120a)"><g fill="#ffffff" fill-opacity="1"><g transform="translate(23.484373, 272.127823)"><g><path d="M 19.25 3.9375 L 46.421875 -128.984375 L 75.03125 -123.140625 L 76.484375 -104.359375 C 82.140625 -109.710938 88.457031 -113.125 95.4375 -114.59375 C 102.425781 -116.070312 110.8125 -115.8125 120.59375 -113.8125 L 135.03125 -110.859375 L 127.890625 -75.921875 L 113.203125 -78.9375 C 102.222656 -81.175781 92.96875 -79.988281 85.4375 -75.375 C 77.90625 -70.769531 72.675781 -61.289062 69.75 -46.9375 L 57.734375 11.796875 Z M 19.25 3.9375 "/></g></g></g></g></g><g clip-path="url(#cb7b1c3e00)"><g clip-path="url(#ef62033be0)"><g transform="matrix(1, 0, 0, 1, 961, 337)"><g clip-path="url(#b5acc6343f)"><g clip-path="url(#729335f97b)"><g clip-path="url(#e8835e3fbf)"><path fill="#1e1c1c" d="M 14.003906 0.246094 L 79.214844 12.527344 L 65.304688 86.398438 L 0.09375 74.117188 Z M 14.003906 0.246094 " fill-opacity="1" fill-rule="nonzero"/></g></g></g></g></g></g><g clip-path="url(#6aabc4a2a7)"><g clip-path="url(#382e348343)"><g transform="matrix(1, 0, 0, 1, 1013, 345)"><g clip-path="url(#d7224ced69)"><g clip-path="url(#1cdbfcaeef)"><g clip-path="url(#0b7621b6f8)"><path fill="#adfa1d" d="M 0.628906 0.917969 L 48.738281 0.917969 L 48.738281 69.886719 L 0.628906 69.886719 Z M 0.628906 0.917969 " fill-opacity="1" fill-rule="nonzero"/></g></g></g></g></g></g></svg>