<svg xmlns="http://www.w3.org/2000/svg" xmlns:xlink="http://www.w3.org/1999/xlink" width="1600" zoomAndPan="magnify" viewBox="0 0 1200 607.92" height="800" preserveAspectRatio="xMidYMid meet" version="1.0"><defs><g/><clipPath id="f419f8e7c4"><rect x="0" width="300" y="0" height="357"/></clipPath><clipPath id="2750533e26"><rect x="0" width="230" y="0" height="357"/></clipPath><clipPath id="e1b1140d09"><path d="M 348.953125 314.53125 L 389.027344 314.53125 L 389.027344 385.960938 L 348.953125 385.960938 Z M 348.953125 314.53125 " clip-rule="nonzero"/></clipPath><clipPath id="33cb424ef3"><path d="M 0.953125 0.53125 L 41.027344 0.53125 L 41.027344 71.960938 L 0.953125 71.960938 Z M 0.953125 0.53125 " clip-rule="nonzero"/></clipPath><clipPath id="23ce421852"><rect x="0" width="42" y="0" height="72"/></clipPath><clipPath id="ee3aae8145"><path d="M 730.015625 224.671875 L 792.992188 224.671875 L 792.992188 296.101562 L 730.015625 296.101562 Z M 730.015625 224.671875 " clip-rule="nonzero"/></clipPath><clipPath id="203428fbc4"><path d="M 0.015625 0.671875 L 62.992188 0.671875 L 62.992188 72.101562 L 0.015625 72.101562 Z M 0.015625 0.671875 " clip-rule="nonzero"/></clipPath><clipPath id="5b57bf6ebc"><rect x="0" width="63" y="0" height="73"/></clipPath><clipPath id="a7597230d2"><path d="M 366.199219 314.53125 L 411.855469 314.53125 L 411.855469 379.984375 L 366.199219 379.984375 Z M 366.199219 314.53125 " clip-rule="nonzero"/></clipPath><clipPath id="f85cab3390"><path d="M 383.148438 314.53125 L 411.855469 314.53125 L 394.902344 379.921875 L 366.199219 379.921875 Z M 383.148438 314.53125 " clip-rule="nonzero"/></clipPath><clipPath id="ee9367df28"><path d="M 0.199219 0.53125 L 45.855469 0.53125 L 45.855469 65.984375 L 0.199219 65.984375 Z M 0.199219 0.53125 " clip-rule="nonzero"/></clipPath><clipPath id="6ac6c2ac10"><path d="M 17.148438 0.53125 L 45.855469 0.53125 L 28.902344 65.921875 L 0.199219 65.921875 Z M 17.148438 0.53125 " clip-rule="nonzero"/></clipPath><clipPath id="a6f9989e6a"><rect x="0" width="46" y="0" height="66"/></clipPath><clipPath id="efba07b49b"><path d="M 771.0625 230.710938 L 821.25 230.710938 L 821.25 296.1875 L 771.0625 296.1875 Z M 771.0625 230.710938 " clip-rule="nonzero"/></clipPath><clipPath id="5ac8a80cfa"><path d="M 788.011719 230.710938 L 821.25 230.710938 L 804.300781 296.101562 L 771.0625 296.101562 Z M 788.011719 230.710938 " clip-rule="nonzero"/></clipPath><clipPath id="bace767f38"><path d="M 0.0625 0.710938 L 50.25 0.710938 L 50.25 66.121094 L 0.0625 66.121094 Z M 0.0625 0.710938 " clip-rule="nonzero"/></clipPath><clipPath id="ed32b7e7bf"><path d="M 17.011719 0.710938 L 50.25 0.710938 L 33.300781 66.101562 L 0.0625 66.101562 Z M 17.011719 0.710938 " clip-rule="nonzero"/></clipPath><clipPath id="e2e7bea497"><rect x="0" width="51" y="0" height="67"/></clipPath><clipPath id="d0201d70e9"><rect x="0" width="278" y="0" height="387"/></clipPath><clipPath id="a1431b5bf8"><rect x="0" width="505" y="0" height="37"/></clipPath><clipPath id="c35e3b58aa"><rect x="0" width="158" y="0" height="357"/></clipPath><clipPath id="61e1cf6a42"><rect x="0" width="179" y="0" height="371"/></clipPath><clipPath id="8c34bcee8a"><path d="M 941 314 L 1013 314 L 1013 393 L 941 393 Z M 941 314 " clip-rule="nonzero"/></clipPath><clipPath id="b9c019c953"><path d="M 949.453125 314.53125 L 1012.019531 321.679688 L 1003.910156 392.648438 L 941.34375 385.5 Z M 949.453125 314.53125 " clip-rule="nonzero"/></clipPath><clipPath id="07936db70a"><path d="M 0.234375 0.359375 L 71.027344 0.359375 L 71.027344 78.828125 L 0.234375 78.828125 Z M 0.234375 0.359375 " clip-rule="nonzero"/></clipPath><clipPath id="c1e74c3931"><path d="M 8.453125 0.53125 L 71.019531 7.679688 L 62.910156 78.648438 L 0.34375 71.5 Z M 8.453125 0.53125 " clip-rule="nonzero"/></clipPath><clipPath id="53f9380aaa"><rect x="0" width="72" y="0" height="79"/></clipPath><clipPath id="5d52f7d9ed"><path d="M 976.683594 317.550781 L 1022.339844 317.550781 L 1022.339844 383 L 976.683594 383 Z M 976.683594 317.550781 " clip-rule="nonzero"/></clipPath><clipPath id="c5df363a5a"><path d="M 993.632812 317.550781 L 1022.339844 317.550781 L 1005.390625 382.941406 L 976.683594 382.941406 Z M 993.632812 317.550781 " clip-rule="nonzero"/></clipPath><clipPath id="73e179da7d"><path d="M 0.683594 0.550781 L 46.339844 0.550781 L 46.339844 65.988281 L 0.683594 65.988281 Z M 0.683594 0.550781 " clip-rule="nonzero"/></clipPath><clipPath id="78dadd7358"><path d="M 17.632812 0.550781 L 46.339844 0.550781 L 29.390625 65.941406 L 0.683594 65.941406 Z M 17.632812 0.550781 " clip-rule="nonzero"/></clipPath><clipPath id="f9fe2a4ce6"><rect x="0" width="47" y="0" height="66"/></clipPath></defs><g transform="matrix(1, 0, 0, 1, 115, 102)"><g clip-path="url(#f419f8e7c4)"><g fill="#1e1c1c" fill-opacity="1"><g transform="translate(1.882872, 262.610817)"><g><path d="M 18.640625 0 L 18.640625 -181.484375 L 55.921875 -181.484375 L 55.921875 -82.40625 L 65.484375 -82.40625 C 73.328125 -82.40625 79.25 -83.671875 83.25 -86.203125 C 87.257812 -88.734375 90.492188 -93.597656 92.953125 -100.796875 L 102.03125 -128.75 L 142.25 -128.75 L 127.28125 -87.796875 C 123.195312 -76.347656 117.722656 -67.601562 110.859375 -61.5625 L 147.890625 0 L 104.46875 0 L 76.03125 -49.046875 L 55.921875 -49.046875 L 55.921875 0 Z M 18.640625 0 "/></g></g></g><g fill="#1e1c1c" fill-opacity="1"><g transform="translate(131.844101, 262.610817)"><g><path d="M 61.5625 2.453125 C 46.351562 2.453125 34.332031 -1.101562 25.5 -8.21875 C 16.675781 -15.332031 12.265625 -25.097656 12.265625 -37.515625 C 12.265625 -49.453125 16.226562 -58.976562 24.15625 -66.09375 C 32.082031 -73.207031 42.75 -76.765625 56.15625 -76.765625 L 102.765625 -76.765625 L 102.765625 -82.65625 C 102.765625 -89.03125 100.472656 -94.132812 95.890625 -97.96875 C 91.316406 -101.8125 85.347656 -103.734375 77.984375 -103.734375 C 71.941406 -103.734375 66.789062 -102.34375 62.53125 -99.5625 C 58.28125 -96.789062 55.585938 -93.113281 54.453125 -88.53125 L 18.640625 -88.53125 C 20.929688 -102.59375 27.265625 -113.382812 37.640625 -120.90625 C 48.023438 -128.425781 61.394531 -132.1875 77.75 -132.1875 C 97.039062 -132.1875 112.117188 -127.320312 122.984375 -117.59375 C 133.859375 -107.863281 139.296875 -94.5 139.296875 -77.5 L 139.296875 0 L 111.59375 0 L 107.421875 -14.953125 C 96.140625 -3.347656 80.851562 2.453125 61.5625 2.453125 Z M 49.046875 -39 C 49.046875 -34.582031 50.96875 -31.023438 54.8125 -28.328125 C 58.65625 -25.628906 63.765625 -24.28125 70.140625 -24.28125 C 79.460938 -24.28125 87.1875 -26.976562 93.3125 -32.375 C 99.445312 -37.769531 102.675781 -44.800781 103 -53.46875 L 67.6875 -53.46875 C 62.125 -53.46875 57.625 -52.15625 54.1875 -49.53125 C 50.757812 -46.914062 49.046875 -43.40625 49.046875 -39 Z M 49.046875 -39 "/></g></g></g><g fill="#1e1c1c" fill-opacity="1"><g transform="translate(263.042541, 262.610817)"><g/></g></g></g></g><g transform="matrix(1, 0, 0, 1, 562, 102)"><g clip-path="url(#2750533e26)"><g fill="#1e1c1c" fill-opacity="1"><g transform="translate(3.848115, 262.610817)"><g><path d="M 49.78125 0 L 2.203125 -128.75 L 41.6875 -128.75 L 56.65625 -86.078125 L 69.40625 -50.03125 L 82.65625 -86.078125 L 98.59375 -128.75 L 128.75 -128.75 L 144.703125 -86.078125 L 157.9375 -49.78125 L 170.6875 -86.078125 L 185.90625 -128.75 L 225.140625 -128.75 L 177.5625 0 L 142.984375 0 L 113.796875 -78.484375 L 84.359375 0 Z M 49.78125 0 "/></g></g></g></g></g><g clip-path="url(#e1b1140d09)"><g transform="matrix(1, 0, 0, 1, 348, 314)"><g clip-path="url(#23ce421852)"><g clip-path="url(#33cb424ef3)"><path fill="#ffffff" d="M 0.953125 0.53125 L 41.027344 0.53125 L 41.027344 71.910156 L 0.953125 71.910156 Z M 0.953125 0.53125 " fill-opacity="1" fill-rule="nonzero"/></g></g></g></g><g clip-path="url(#ee3aae8145)"><g transform="matrix(1, 0, 0, 1, 730, 224)"><g clip-path="url(#5b57bf6ebc)"><g clip-path="url(#203428fbc4)"><path fill="#ffffff" d="M 0.015625 0.671875 L 62.992188 0.671875 L 62.992188 72.007812 L 0.015625 72.007812 Z M 0.015625 0.671875 " fill-opacity="1" fill-rule="nonzero"/></g></g></g></g><g clip-path="url(#a7597230d2)"><g clip-path="url(#f85cab3390)"><g transform="matrix(1, 0, 0, 1, 366, 314)"><g clip-path="url(#a6f9989e6a)"><g clip-path="url(#ee9367df28)"><g clip-path="url(#6ac6c2ac10)"><path fill="#adfa1d" d="M 0.199219 0.53125 L 45.855469 0.53125 L 45.855469 65.984375 L 0.199219 65.984375 Z M 0.199219 0.53125 " fill-opacity="1" fill-rule="nonzero"/></g></g></g></g></g></g><g clip-path="url(#efba07b49b)"><g clip-path="url(#5ac8a80cfa)"><g transform="matrix(1, 0, 0, 1, 771, 230)"><g clip-path="url(#e2e7bea497)"><g clip-path="url(#bace767f38)"><g clip-path="url(#ed32b7e7bf)"><path fill="#adfa1d" d="M 0.0625 0.710938 L 50.25 0.710938 L 50.25 66.1875 L 0.0625 66.1875 Z M 0.0625 0.710938 " fill-opacity="1" fill-rule="nonzero"/></g></g></g></g></g></g><g transform="matrix(1, 0, 0, 1, 349, 90)"><g clip-path="url(#d0201d70e9)"><g fill="#1e1c1c" fill-opacity="1"><g transform="translate(102.716651, 299.8761)"><g><path d="M 17.171875 -7.25 L -32.921875 -125.84375 L -7.390625 -136.640625 L 1.84375 -124.828125 C 4.3125 -132.453125 8.394531 -139.0625 14.09375 -144.65625 C 19.800781 -150.257812 26.570312 -154.71875 34.40625 -158.03125 C 49.914062 -164.582031 64.113281 -164.898438 77 -158.984375 C 89.894531 -153.066406 99.8125 -141.898438 106.75 -125.484375 L 135.5625 -57.265625 L 101.21875 -42.75 L 73.921875 -107.359375 C 70.234375 -116.085938 65.285156 -122.03125 59.078125 -125.1875 C 52.867188 -128.34375 46.066406 -128.359375 38.671875 -125.234375 C 30.847656 -121.921875 25.671875 -116.535156 23.140625 -109.078125 C 20.617188 -101.628906 21.332031 -93.234375 25.28125 -83.890625 L 51.515625 -21.765625 Z M 17.171875 -7.25 "/></g></g></g></g></g><g transform="matrix(1, 0, 0, 1, 378, 412)"><g clip-path="url(#a1431b5bf8)"><g fill="#adfa1d" fill-opacity="1"><g transform="translate(1.899509, 29.246955)"><g><path d="M 1.359375 -18.234375 L 1.359375 -20.4375 L 16.6875 -20.4375 L 16.6875 -18.234375 L 10.25 -18.234375 L 10.25 0 L 7.78125 0 L 7.78125 -18.234375 Z M 1.359375 -18.234375 "/></g></g></g><g fill="#adfa1d" fill-opacity="1"><g transform="translate(38.225104, 29.246955)"><g><path d="M 2.46875 0 L 2.46875 -20.4375 L 14.8125 -20.4375 L 14.8125 -18.234375 L 4.953125 -18.234375 L 4.953125 -11.328125 L 14.171875 -11.328125 L 14.171875 -9.140625 L 4.953125 -9.140625 L 4.953125 -2.1875 L 14.96875 -2.1875 L 14.96875 0 Z M 2.46875 0 "/></g></g></g><g fill="#adfa1d" fill-opacity="1"><g transform="translate(73.31366, 29.246955)"><g><path d="M 18.921875 -14.046875 L 16.4375 -14.046875 C 16.238281 -14.992188 15.859375 -15.789062 15.296875 -16.4375 C 14.734375 -17.082031 14.050781 -17.566406 13.25 -17.890625 C 12.445312 -18.222656 11.59375 -18.390625 10.6875 -18.390625 C 9.457031 -18.390625 8.34375 -18.078125 7.34375 -17.453125 C 6.34375 -16.828125 5.546875 -15.90625 4.953125 -14.6875 C 4.367188 -13.476562 4.078125 -11.988281 4.078125 -10.21875 C 4.078125 -8.445312 4.367188 -6.953125 4.953125 -5.734375 C 5.546875 -4.515625 6.34375 -3.59375 7.34375 -2.96875 C 8.34375 -2.34375 9.457031 -2.03125 10.6875 -2.03125 C 11.59375 -2.03125 12.445312 -2.195312 13.25 -2.53125 C 14.050781 -2.863281 14.734375 -3.351562 15.296875 -4 C 15.859375 -4.644531 16.238281 -5.441406 16.4375 -6.390625 L 18.921875 -6.390625 C 18.660156 -4.992188 18.140625 -3.796875 17.359375 -2.796875 C 16.585938 -1.804688 15.625 -1.046875 14.46875 -0.515625 C 13.320312 0.015625 12.0625 0.28125 10.6875 0.28125 C 8.945312 0.28125 7.398438 -0.144531 6.046875 -1 C 4.691406 -1.851562 3.625 -3.0625 2.84375 -4.625 C 2.0625 -6.195312 1.671875 -8.0625 1.671875 -10.21875 C 1.671875 -12.375 2.0625 -14.234375 2.84375 -15.796875 C 3.625 -17.367188 4.691406 -18.582031 6.046875 -19.4375 C 7.398438 -20.289062 8.945312 -20.71875 10.6875 -20.71875 C 12.0625 -20.71875 13.320312 -20.453125 14.46875 -19.921875 C 15.625 -19.390625 16.585938 -18.625 17.359375 -17.625 C 18.140625 -16.632812 18.660156 -15.441406 18.921875 -14.046875 Z M 18.921875 -14.046875 "/></g></g></g><g fill="#adfa1d" fill-opacity="1"><g transform="translate(112.033529, 29.246955)"><g><path d="M 2.46875 0 L 2.46875 -20.4375 L 4.953125 -20.4375 L 4.953125 -11.328125 L 15.84375 -11.328125 L 15.84375 -20.4375 L 18.3125 -20.4375 L 18.3125 0 L 15.84375 0 L 15.84375 -9.140625 L 4.953125 -9.140625 L 4.953125 0 Z M 2.46875 0 "/></g></g></g><g fill="#adfa1d" fill-opacity="1"><g transform="translate(151.112553, 29.246955)"><g/></g></g><g fill="#adfa1d" fill-opacity="1"><g transform="translate(177.302422, 29.246955)"><g><path d="M 13.640625 -15.328125 C 13.523438 -16.335938 13.039062 -17.117188 12.1875 -17.671875 C 11.34375 -18.234375 10.300781 -18.515625 9.0625 -18.515625 C 7.695312 -18.515625 6.601562 -18.191406 5.78125 -17.546875 C 4.957031 -16.910156 4.546875 -16.101562 4.546875 -15.125 C 4.546875 -14.394531 4.769531 -13.804688 5.21875 -13.359375 C 5.664062 -12.910156 6.195312 -12.5625 6.8125 -12.3125 C 7.425781 -12.0625 7.988281 -11.867188 8.5 -11.734375 L 10.578125 -11.171875 C 11.109375 -11.035156 11.703125 -10.84375 12.359375 -10.59375 C 13.015625 -10.34375 13.640625 -10.003906 14.234375 -9.578125 C 14.835938 -9.160156 15.335938 -8.625 15.734375 -7.96875 C 16.128906 -7.3125 16.328125 -6.503906 16.328125 -5.546875 C 16.328125 -4.441406 16.035156 -3.441406 15.453125 -2.546875 C 14.878906 -1.660156 14.039062 -0.953125 12.9375 -0.421875 C 11.84375 0.0976562 10.507812 0.359375 8.9375 0.359375 C 6.738281 0.359375 4.992188 -0.15625 3.703125 -1.1875 C 2.421875 -2.226562 1.71875 -3.585938 1.59375 -5.265625 L 4.15625 -5.265625 C 4.21875 -4.492188 4.472656 -3.859375 4.921875 -3.359375 C 5.378906 -2.859375 5.957031 -2.484375 6.65625 -2.234375 C 7.363281 -1.992188 8.125 -1.875 8.9375 -1.875 C 9.882812 -1.875 10.734375 -2.023438 11.484375 -2.328125 C 12.234375 -2.640625 12.828125 -3.070312 13.265625 -3.625 C 13.703125 -4.1875 13.921875 -4.84375 13.921875 -5.59375 C 13.921875 -6.269531 13.734375 -6.816406 13.359375 -7.234375 C 12.984375 -7.660156 12.484375 -8.003906 11.859375 -8.265625 C 11.242188 -8.535156 10.578125 -8.773438 9.859375 -8.984375 L 7.34375 -9.703125 C 5.75 -10.160156 4.484375 -10.8125 3.546875 -11.65625 C 2.617188 -12.507812 2.15625 -13.625 2.15625 -15 C 2.15625 -16.144531 2.460938 -17.144531 3.078125 -18 C 3.703125 -18.851562 4.539062 -19.519531 5.59375 -20 C 6.65625 -20.476562 7.835938 -20.71875 9.140625 -20.71875 C 10.453125 -20.71875 11.617188 -20.476562 12.640625 -20 C 13.671875 -19.53125 14.484375 -18.890625 15.078125 -18.078125 C 15.679688 -17.273438 16.003906 -16.359375 16.046875 -15.328125 Z M 13.640625 -15.328125 "/></g></g></g><g fill="#adfa1d" fill-opacity="1"><g transform="translate(213.508311, 29.246955)"><g><path d="M 19.71875 -10.21875 C 19.71875 -8.0625 19.328125 -6.195312 18.546875 -4.625 C 17.765625 -3.0625 16.695312 -1.851562 15.34375 -1 C 13.988281 -0.144531 12.4375 0.28125 10.6875 0.28125 C 8.945312 0.28125 7.398438 -0.144531 6.046875 -1 C 4.691406 -1.851562 3.625 -3.0625 2.84375 -4.625 C 2.0625 -6.195312 1.671875 -8.0625 1.671875 -10.21875 C 1.671875 -12.375 2.0625 -14.234375 2.84375 -15.796875 C 3.625 -17.367188 4.691406 -18.582031 6.046875 -19.4375 C 7.398438 -20.289062 8.945312 -20.71875 10.6875 -20.71875 C 12.4375 -20.71875 13.988281 -20.289062 15.34375 -19.4375 C 16.695312 -18.582031 17.765625 -17.367188 18.546875 -15.796875 C 19.328125 -14.234375 19.71875 -12.375 19.71875 -10.21875 Z M 17.3125 -10.21875 C 17.3125 -11.988281 17.015625 -13.476562 16.421875 -14.6875 C 15.835938 -15.90625 15.046875 -16.828125 14.046875 -17.453125 C 13.046875 -18.078125 11.925781 -18.390625 10.6875 -18.390625 C 9.457031 -18.390625 8.34375 -18.078125 7.34375 -17.453125 C 6.34375 -16.828125 5.546875 -15.90625 4.953125 -14.6875 C 4.367188 -13.476562 4.078125 -11.988281 4.078125 -10.21875 C 4.078125 -8.445312 4.367188 -6.953125 4.953125 -5.734375 C 5.546875 -4.515625 6.34375 -3.59375 7.34375 -2.96875 C 8.34375 -2.34375 9.457031 -2.03125 10.6875 -2.03125 C 11.925781 -2.03125 13.046875 -2.34375 14.046875 -2.96875 C 15.046875 -3.59375 15.835938 -4.515625 16.421875 -5.734375 C 17.015625 -6.953125 17.3125 -8.445312 17.3125 -10.21875 Z M 17.3125 -10.21875 "/></g></g></g><g fill="#adfa1d" fill-opacity="1"><g transform="translate(253.185903, 29.246955)"><g><path d="M 2.46875 0 L 2.46875 -20.4375 L 4.953125 -20.4375 L 4.953125 -2.1875 L 14.453125 -2.1875 L 14.453125 0 Z M 2.46875 0 "/></g></g></g><g fill="#adfa1d" fill-opacity="1"><g transform="translate(287.276868, 29.246955)"><g><path d="M 15.875 -20.4375 L 18.359375 -20.4375 L 18.359375 -6.90625 C 18.359375 -5.375 17.992188 -4.066406 17.265625 -2.984375 C 16.546875 -1.898438 15.582031 -1.070312 14.375 -0.5 C 13.164062 0.0703125 11.847656 0.359375 10.421875 0.359375 C 8.984375 0.359375 7.660156 0.0703125 6.453125 -0.5 C 5.253906 -1.070312 4.289062 -1.898438 3.5625 -2.984375 C 2.832031 -4.066406 2.46875 -5.375 2.46875 -6.90625 L 2.46875 -20.4375 L 4.953125 -20.4375 L 4.953125 -6.90625 C 4.953125 -5.84375 5.203125 -4.941406 5.703125 -4.203125 C 6.210938 -3.472656 6.878906 -2.914062 7.703125 -2.53125 C 8.535156 -2.144531 9.441406 -1.953125 10.421875 -1.953125 C 11.390625 -1.953125 12.285156 -2.144531 13.109375 -2.53125 C 13.941406 -2.914062 14.609375 -3.472656 15.109375 -4.203125 C 15.617188 -4.941406 15.875 -5.84375 15.875 -6.90625 Z M 15.875 -20.4375 "/></g></g></g><g fill="#adfa1d" fill-opacity="1"><g transform="translate(326.395794, 29.246955)"><g><path d="M 1.359375 -18.234375 L 1.359375 -20.4375 L 16.6875 -20.4375 L 16.6875 -18.234375 L 10.25 -18.234375 L 10.25 0 L 7.78125 0 L 7.78125 -18.234375 Z M 1.359375 -18.234375 "/></g></g></g><g fill="#adfa1d" fill-opacity="1"><g transform="translate(362.721389, 29.246955)"><g><path d="M 4.953125 -20.4375 L 4.953125 0 L 2.46875 0 L 2.46875 -20.4375 Z M 4.953125 -20.4375 "/></g></g></g><g fill="#adfa1d" fill-opacity="1"><g transform="translate(388.432433, 29.246955)"><g><path d="M 19.71875 -10.21875 C 19.71875 -8.0625 19.328125 -6.195312 18.546875 -4.625 C 17.765625 -3.0625 16.695312 -1.851562 15.34375 -1 C 13.988281 -0.144531 12.4375 0.28125 10.6875 0.28125 C 8.945312 0.28125 7.398438 -0.144531 6.046875 -1 C 4.691406 -1.851562 3.625 -3.0625 2.84375 -4.625 C 2.0625 -6.195312 1.671875 -8.0625 1.671875 -10.21875 C 1.671875 -12.375 2.0625 -14.234375 2.84375 -15.796875 C 3.625 -17.367188 4.691406 -18.582031 6.046875 -19.4375 C 7.398438 -20.289062 8.945312 -20.71875 10.6875 -20.71875 C 12.4375 -20.71875 13.988281 -20.289062 15.34375 -19.4375 C 16.695312 -18.582031 17.765625 -17.367188 18.546875 -15.796875 C 19.328125 -14.234375 19.71875 -12.375 19.71875 -10.21875 Z M 17.3125 -10.21875 C 17.3125 -11.988281 17.015625 -13.476562 16.421875 -14.6875 C 15.835938 -15.90625 15.046875 -16.828125 14.046875 -17.453125 C 13.046875 -18.078125 11.925781 -18.390625 10.6875 -18.390625 C 9.457031 -18.390625 8.34375 -18.078125 7.34375 -17.453125 C 6.34375 -16.828125 5.546875 -15.90625 4.953125 -14.6875 C 4.367188 -13.476562 4.078125 -11.988281 4.078125 -10.21875 C 4.078125 -8.445312 4.367188 -6.953125 4.953125 -5.734375 C 5.546875 -4.515625 6.34375 -3.59375 7.34375 -2.96875 C 8.34375 -2.34375 9.457031 -2.03125 10.6875 -2.03125 C 11.925781 -2.03125 13.046875 -2.34375 14.046875 -2.96875 C 15.046875 -3.59375 15.835938 -4.515625 16.421875 -5.734375 C 17.015625 -6.953125 17.3125 -8.445312 17.3125 -10.21875 Z M 17.3125 -10.21875 "/></g></g></g><g fill="#adfa1d" fill-opacity="1"><g transform="translate(428.110024, 29.246955)"><g><path d="M 18.671875 -20.4375 L 18.671875 0 L 16.28125 0 L 5.140625 -16.046875 L 4.953125 -16.046875 L 4.953125 0 L 2.46875 0 L 2.46875 -20.4375 L 4.875 -20.4375 L 16.046875 -4.34375 L 16.234375 -4.34375 L 16.234375 -20.4375 Z M 18.671875 -20.4375 "/></g></g></g><g fill="#adfa1d" fill-opacity="1"><g transform="translate(467.548169, 29.246955)"><g><path d="M 13.640625 -15.328125 C 13.523438 -16.335938 13.039062 -17.117188 12.1875 -17.671875 C 11.34375 -18.234375 10.300781 -18.515625 9.0625 -18.515625 C 7.695312 -18.515625 6.601562 -18.191406 5.78125 -17.546875 C 4.957031 -16.910156 4.546875 -16.101562 4.546875 -15.125 C 4.546875 -14.394531 4.769531 -13.804688 5.21875 -13.359375 C 5.664062 -12.910156 6.195312 -12.5625 6.8125 -12.3125 C 7.425781 -12.0625 7.988281 -11.867188 8.5 -11.734375 L 10.578125 -11.171875 C 11.109375 -11.035156 11.703125 -10.84375 12.359375 -10.59375 C 13.015625 -10.34375 13.640625 -10.003906 14.234375 -9.578125 C 14.835938 -9.160156 15.335938 -8.625 15.734375 -7.96875 C 16.128906 -7.3125 16.328125 -6.503906 16.328125 -5.546875 C 16.328125 -4.441406 16.035156 -3.441406 15.453125 -2.546875 C 14.878906 -1.660156 14.039062 -0.953125 12.9375 -0.421875 C 11.84375 0.0976562 10.507812 0.359375 8.9375 0.359375 C 6.738281 0.359375 4.992188 -0.15625 3.703125 -1.1875 C 2.421875 -2.226562 1.71875 -3.585938 1.59375 -5.265625 L 4.15625 -5.265625 C 4.21875 -4.492188 4.472656 -3.859375 4.921875 -3.359375 C 5.378906 -2.859375 5.957031 -2.484375 6.65625 -2.234375 C 7.363281 -1.992188 8.125 -1.875 8.9375 -1.875 C 9.882812 -1.875 10.734375 -2.023438 11.484375 -2.328125 C 12.234375 -2.640625 12.828125 -3.070312 13.265625 -3.625 C 13.703125 -4.1875 13.921875 -4.84375 13.921875 -5.59375 C 13.921875 -6.269531 13.734375 -6.816406 13.359375 -7.234375 C 12.984375 -7.660156 12.484375 -8.003906 11.859375 -8.265625 C 11.242188 -8.535156 10.578125 -8.773438 9.859375 -8.984375 L 7.34375 -9.703125 C 5.75 -10.160156 4.484375 -10.8125 3.546875 -11.65625 C 2.617188 -12.507812 2.15625 -13.625 2.15625 -15 C 2.15625 -16.144531 2.460938 -17.144531 3.078125 -18 C 3.703125 -18.851562 4.539062 -19.519531 5.59375 -20 C 6.65625 -20.476562 7.835938 -20.71875 9.140625 -20.71875 C 10.453125 -20.71875 11.617188 -20.476562 12.640625 -20 C 13.671875 -19.53125 14.484375 -18.890625 15.078125 -18.078125 C 15.679688 -17.273438 16.003906 -16.359375 16.046875 -15.328125 Z M 13.640625 -15.328125 "/></g></g></g></g></g><g transform="matrix(1, 0, 0, 1, 803, 102)"><g clip-path="url(#c35e3b58aa)"><g fill="#1e1c1c" fill-opacity="1"><g transform="translate(1.872593, 262.610817)"><g><path d="M 79.46875 3.4375 C 65.726562 3.4375 53.582031 0.578125 43.03125 -5.140625 C 32.488281 -10.867188 24.273438 -18.84375 18.390625 -29.0625 C 12.503906 -39.28125 9.5625 -51.09375 9.5625 -64.5 C 9.5625 -77.90625 12.546875 -89.675781 18.515625 -99.8125 C 24.484375 -109.945312 32.738281 -117.875 43.28125 -123.59375 C 53.832031 -129.320312 66.054688 -132.1875 79.953125 -132.1875 C 94.671875 -132.1875 107.382812 -128.914062 118.09375 -122.375 C 128.800781 -115.832031 136.972656 -106.675781 142.609375 -94.90625 C 148.253906 -83.132812 150.664062 -69.398438 149.84375 -53.703125 L 46.59375 -53.703125 C 48.394531 -44.878906 52.316406 -38.132812 58.359375 -33.46875 C 64.410156 -28.8125 71.691406 -26.484375 80.203125 -26.484375 C 86.410156 -26.484375 92.085938 -27.664062 97.234375 -30.03125 C 102.390625 -32.40625 106.519531 -35.71875 109.625 -39.96875 L 147.390625 -39.96875 C 141.835938 -26.40625 133.09375 -15.78125 121.15625 -8.09375 C 109.21875 -0.40625 95.320312 3.4375 79.46875 3.4375 Z M 46.84375 -77.25 L 113.796875 -77.25 C 111.671875 -85.101562 107.703125 -91.273438 101.890625 -95.765625 C 96.085938 -100.265625 88.859375 -102.515625 80.203125 -102.515625 C 72.023438 -102.515625 64.953125 -100.265625 58.984375 -95.765625 C 53.015625 -91.273438 48.96875 -85.101562 46.84375 -77.25 Z M 46.84375 -77.25 "/></g></g></g></g></g><g transform="matrix(1, 0, 0, 1, 905, 94)"><g clip-path="url(#61e1cf6a42)"><g fill="#1e1c1c" fill-opacity="1"><g transform="translate(22.637983, 257.627846)"><g><path d="M 18.265625 3.734375 L 44.0625 -122.40625 L 71.21875 -116.859375 L 72.5625 -99.0625 C 77.945312 -104.125 83.953125 -107.351562 90.578125 -108.75 C 97.203125 -110.15625 105.164062 -109.910156 114.46875 -108.015625 L 128.140625 -105.21875 L 121.359375 -72.0625 L 107.4375 -74.90625 C 97.03125 -77.03125 88.25 -75.90625 81.09375 -71.53125 C 73.9375 -67.15625 68.960938 -58.15625 66.171875 -44.53125 L 54.78125 11.203125 Z M 18.265625 3.734375 "/></g></g></g></g></g><g clip-path="url(#8c34bcee8a)"><g clip-path="url(#b9c019c953)"><g transform="matrix(1, 0, 0, 1, 941, 314)"><g clip-path="url(#53f9380aaa)"><g clip-path="url(#07936db70a)"><g clip-path="url(#c1e74c3931)"><path fill="#ffffff" d="M 8.453125 0.53125 L 71.019531 7.679688 L 62.921875 78.558594 L 0.355469 71.410156 Z M 8.453125 0.53125 " fill-opacity="1" fill-rule="nonzero"/></g></g></g></g></g></g><g clip-path="url(#5d52f7d9ed)"><g clip-path="url(#c5df363a5a)"><g transform="matrix(1, 0, 0, 1, 976, 317)"><g clip-path="url(#f9fe2a4ce6)"><g clip-path="url(#73e179da7d)"><g clip-path="url(#78dadd7358)"><path fill="#adfa1d" d="M 0.683594 0.550781 L 46.339844 0.550781 L 46.339844 66.003906 L 0.683594 66.003906 Z M 0.683594 0.550781 " fill-opacity="1" fill-rule="nonzero"/></g></g></g></g></g></g></svg>